# xmcd CD database file generated by Grip 3.0.5
# 
# Track frame offsets:
#       150
#       14505
#       34562
#       49330
#       65822
#       84570
#       97150
#       118880
#       130922
#       146422
#       164037
#       183797
#       194575
#       209592
#       222297
#       233722
#       246302
# 
# Disc length: 3457 seconds
# 
# Revision: 5
# Processed by: cddbd v1.4PL0 Copyright (c) Steve Scherf et al.
# Submitted via: Grip 3.0.5
# 
DISCID=0a0d7f11
DTITLE=Nitty Gritty Dirt Band - Will The Circle Be Unbroken Disk 1
DYEAR=1972
DGENRE=Country
TTITLE0=Grand Ole Opry Song
TTITLE1=Keep On The Sunny Side
TTITLE2=Nashville Blues
TTITLE3=You Are My Flower
TTITLE4=The Precious Jewel
TTITLE5=Dark As A Dungeon
TTITLE6=Tennessee Stud
TTITLE7=Black Mountain Rag
TTITLE8=The Wreck On The Highway
TTITLE9=The End Of The World
TTITLE10=I Saw The Light
TTITLE11=Sunny Side Of The Mountain
TTITLE12=Nine Pound Hammer
TTITLE13=Losin' You (Might Be The Best Thing Yet)
TTITLE14=Honky Tonkin'
TTITLE15=You Don't Know My Mind
TTITLE16=My Walkin' Shoes
EXTD=
EXTT0=
EXTT1=
EXTT2=
EXTT3=
EXTT4=
EXTT5=
EXTT6=
EXTT7=
EXTT8=
EXTT9=
EXTT10=
EXTT11=
EXTT12=
EXTT13=
EXTT14=
EXTT15=
EXTT16=
PLAYORDER=
